<svg width="32" height="32" viewBox="0 0 32 32" fill="none" xmlns="http://www.w3.org/2000/svg">
<path d="M15.9998 2.66669C8.64784 2.66669 2.6665 8.64802 2.6665 16C2.6665 23.352 8.64784 29.3334 15.9998 29.3334C23.3518 29.3334 29.3332 23.352 29.3332 16C29.3332 8.64802 23.3518 2.66669 15.9998 2.66669ZM15.9998 26.6667C10.1185 26.6667 5.33317 21.8814 5.33317 16C5.33317 10.1187 10.1185 5.33335 15.9998 5.33335C21.8812 5.33335 26.6665 10.1187 26.6665 16C26.6665 21.8814 21.8812 26.6667 15.9998 26.6667Z" fill="#273A53"/>
<path d="M17.3332 9.33331H14.6665V17.3333H22.6665V14.6666H17.3332V9.33331Z" fill="#273A53"/>
</svg>
