<svg width="32" height="32" viewBox="0 0 32 32" fill="none" xmlns="http://www.w3.org/2000/svg">
<path d="M16.0001 2.66669C8.77208 2.66669 2.66675 8.77202 2.66675 16C2.66675 20.252 4.78941 24.104 8.00008 26.5654V26.6667H8.13608C10.3601 28.3267 13.0841 29.3334 16.0001 29.3334C18.9161 29.3334 21.6401 28.3267 23.8641 26.6667H24.0001V26.5654C27.2107 24.104 29.3334 20.2534 29.3334 16C29.3334 8.77202 23.2281 2.66669 16.0001 2.66669ZM10.7654 25.236C11.1614 23.4427 12.7574 22.0974 14.6667 22.0974H17.3334C19.2427 22.0974 20.8387 23.444 21.2347 25.236C19.6774 26.1387 17.8881 26.6667 16.0001 26.6667C14.1121 26.6667 12.3227 26.1387 10.7654 25.236ZM23.4801 23.5214C22.4707 21.1214 20.0961 19.4307 17.3334 19.4307H14.6667C11.9041 19.4307 9.52808 21.1227 8.52008 23.5214C6.56408 21.576 5.33341 18.9014 5.33341 16C5.33341 10.2174 10.2174 5.33335 16.0001 5.33335C21.7827 5.33335 26.6667 10.2174 26.6667 16C26.6667 18.9014 25.4361 21.576 23.4801 23.5214Z" fill="#273A53"/>
<path d="M16.0001 8C12.9601 8 10.6667 10.2933 10.6667 13.3333C10.6667 16.3733 12.9601 18.6667 16.0001 18.6667C19.0401 18.6667 21.3334 16.3733 21.3334 13.3333C21.3334 10.2933 19.0401 8 16.0001 8ZM16.0001 16C14.4294 16 13.3334 14.904 13.3334 13.3333C13.3334 11.7627 14.4294 10.6667 16.0001 10.6667C17.5707 10.6667 18.6667 11.7627 18.6667 13.3333C18.6667 14.904 17.5707 16 16.0001 16Z" fill="#273A53"/>
</svg>
