<svg width="24" height="24" viewBox="0 0 24 24" fill="none" xmlns="http://www.w3.org/2000/svg">
<path d="M17.7068 12.293C17.3158 11.902 16.6838 11.902 16.2928 12.293L14.6988 13.887C13.9598 13.667 12.5808 13.167 11.7068 12.293C10.8328 11.419 10.3328 10.04 10.1128 9.301L11.7068 7.707C12.0978 7.316 12.0978 6.684 11.7068 6.293L7.70685 2.293C7.31585 1.902 6.68385 1.902 6.29285 2.293L3.58085 5.005C3.20085 5.385 2.98685 5.907 2.99485 6.44C3.01785 7.864 3.39485 12.81 7.29285 16.708C11.1908 20.606 16.1368 20.982 17.5618 21.006C17.5668 21.006 17.5848 21.006 17.5898 21.006C18.1178 21.006 18.6168 20.798 18.9948 20.42L21.7068 17.708C22.0978 17.317 22.0978 16.685 21.7068 16.294L17.7068 12.293ZM17.5798 19.005C16.3318 18.984 12.0618 18.649 8.70685 15.293C5.34085 11.927 5.01485 7.642 4.99485 6.419L6.99985 4.414L9.58585 7L8.29285 8.293C8.05385 8.531 7.95185 8.875 8.02085 9.205C8.04485 9.32 8.63185 12.047 10.2918 13.707C11.9518 15.367 14.6788 15.954 14.7938 15.978C15.1268 16.049 15.4678 15.946 15.7058 15.707L16.9998 14.414L19.5858 17L17.5798 19.005Z" fill="#273A53"/>
</svg>
